<svg xmlns="http://www.w3.org/2000/svg" id="bg" width="29.727" height="24.98" viewBox="0 0 29.727 24.98">
    <defs>
        <style>
            .cls-2{fill:#573b25}
        </style>
    </defs>
    <g id="bg-2" opacity="0.141" transform="translate(-.781 -1.844)">
        <g id="Group_316" transform="translate(9.043 16.857)">
            <path id="Path_883" d="M126.825 226.7a.648.648 0 0 0 .212-.614c-.1-.531-.645-.72-1.115-.758a.234.234 0 0 0-.076.008 1.505 1.505 0 0 0 .008-.637 3.081 3.081 0 0 0-2.854-2.417.191.191 0 0 0-.22.243 2.287 2.287 0 0 0 .273.728c.068.114.281.326.091.47a1.11 1.11 0 0 1-.425.061c-.356.038-.956-.114-1.1.326a1.115 1.115 0 0 0-.053.311.724.724 0 0 0-.736.106.941.941 0 0 0-.311.819 1.136 1.136 0 0 0-.774.2c-.9.614-.478 1.782.228 2.351a11.972 11.972 0 0 0 0 1.38 2.42 2.42 0 0 0 .265 1.221 1.633 1.633 0 0 0 .91.576 15.374 15.374 0 0 0 1.57.41c.69.152 1.722.531 2.23-.159a8.426 8.426 0 0 0 1.122-2.5 1.07 1.07 0 0 0 1.623-.7 1.3 1.3 0 0 0-.868-1.425zm-4.816-2.412c.106-.137.152-.1.326-.1a2.748 2.748 0 0 0 1.024-.144.45.45 0 0 0 .258-.538 1.991 1.991 0 0 0-.25-.447 1.889 1.889 0 0 1-.159-.356 2.756 2.756 0 0 1 2.161 1.638 1.579 1.579 0 0 1 .129.645c-.045.4-.387.425-.72.447a2.927 2.927 0 0 1-1.7-.455.171.171 0 0 0-.19.008.188.188 0 0 0-.19 0 .5.5 0 0 1-.705-.3.4.4 0 0 1 .016-.401zm-.986.561a.339.339 0 0 1 .455-.046.157.157 0 0 0 .174.038.88.88 0 0 0 1.229.463l.008.008a3.364 3.364 0 0 0 2.154.47c.243-.03.546-.038.705-.258a.217.217 0 0 0 .19.182.842.842 0 0 1 .675.311c.106.174.053.5-.212.447a.16.16 0 0 0-.167.053l-.19-.023c-.614-.053-1.221 0-1.828-.083-.637-.083-1.274-.212-1.9-.326a3.164 3.164 0 0 1-.925-.212 3.043 3.043 0 0 1-.455-.372.068.068 0 0 0-.008-.038.642.642 0 0 1 .095-.617zm-.561 5.271a3.956 3.956 0 0 1-.137-1.16c-.008-.273-.008-.554 0-.827a1.238 1.238 0 0 0 .622.265.975.975 0 0 0 .364-.023 10.665 10.665 0 0 1-.174 2.252v.038a.944.944 0 0 1-.675-.548zm1.039.667a.145.145 0 0 0 .023-.061 11.457 11.457 0 0 0 .182-2.5.057.057 0 0 0-.008-.038.206.206 0 0 1 .2-.03c.1.038.19.22.3.281a.9.9 0 0 0 .394.106 1.032 1.032 0 0 0 .159-.015 11.945 11.945 0 0 1-.463 2.472c-.25-.061-.5-.129-.751-.2-.013-.011-.021-.011-.037-.018zm1.16.3a12.875 12.875 0 0 0 .478-2.73.4.4 0 0 0 .083-.076c.1.106.167.334.258.417a.863.863 0 0 0 .546.228 6.691 6.691 0 0 1-.463 2.177.2.2 0 0 0-.2.129c-.232-.046-.463-.099-.702-.152zm2.161-.319a1.207 1.207 0 0 1-.364.5.88.88 0 0 1-.576.053 7.211 7.211 0 0 0 .531-2.465.627.627 0 0 0 .212-.159.781.781 0 0 0 .523.425.708.708 0 0 0 .417-.038 9.8 9.8 0 0 1-.742 1.677zm1.365-2.313a.176.176 0 0 0-.2-.03.129.129 0 0 0-.053-.008.185.185 0 0 0-.319.083.316.316 0 0 1-.523.182.622.622 0 0 1-.22-.447.189.189 0 0 0-.372-.03.62.62 0 0 1-.114.212.2.2 0 0 0-.326.129.617.617 0 0 1-.447-.3c-.106-.182-.174-.311-.387-.379a.2.2 0 0 0-.212.1c-.258.379-.622.174-.865-.068a.428.428 0 0 0-.4-.159c-.243.046-.341.288-.607.311a.983.983 0 0 1-.8-.379.156.156 0 0 0-.159-.174.138.138 0 0 0-.167-.046 1.3 1.3 0 0 1-.432-.933c.008-.463.531-.978 1.009-.751.2.1.326.326.523.44a1.526 1.526 0 0 0 .508.159c.546.106 1.092.2 1.646.288a13.294 13.294 0 0 0 1.449.2 10.83 10.83 0 0 1 1.57.068c.485.1 1.016.41 1.024.971a.687.687 0 0 1-1.125.554z" class="cls-2" transform="translate(-119.236 -222.281)"/>
            <path id="Path_884" d="M134.237 277.537a.191.191 0 0 0-.083.372.191.191 0 0 0 .083-.372z" class="cls-2" transform="translate(-132.89 -273.342)"/>
            <path id="Path_885" d="M154.037 283.437a.191.191 0 0 0-.083.372.191.191 0 0 0 .083-.372z" class="cls-2" transform="translate(-151.189 -278.794)"/>
            <path id="Path_886" d="M182.437 285.137a.191.191 0 0 0-.083.372.191.191 0 0 0 .083-.372z" class="cls-2" transform="translate(-177.435 -280.365)"/>
            <path id="Path_887" d="M206.937 288.637a.191.191 0 0 0-.083.372.191.191 0 0 0 .083-.372z" class="cls-2" transform="translate(-200.077 -283.6)"/>
        </g>
        <g id="Group_312" transform="translate(21.364 19.492)">
            <path id="Path_903" d="M458.6 230.272a.325.325 0 0 0-.223-.08c-.057 0-.206.069-.257.034a.136.136 0 0 0-.166.006v-.046c-.017-.331-.371-.583-.634-.726a2.082 2.082 0 0 0-1.891-.034 2.88 2.88 0 0 0-.84.76c-.3.354-.731.794-1.24.577a.143.143 0 0 0-.194.12 1.435 1.435 0 0 0 .509 1.4.788.788 0 0 0-.474.863c.086.463.577.64.989.7a2.919 2.919 0 0 0 1.171 1.623c.72.406 1.377.074 2.063-.24a4.25 4.25 0 0 0 1.137-.6 1.648 1.648 0 0 0 .469-.806 3.235 3.235 0 0 0-.309-2.023.887.887 0 0 0 .206-.931 1.293 1.293 0 0 0-.316-.597zm-3.846.16a2.634 2.634 0 0 1 .857-.771 1.781 1.781 0 0 1 .96-.137 1.641 1.641 0 0 1 .886.389c.423.371-.04.863-.337 1.154a5.918 5.918 0 0 1-1.851 1.109.114.114 0 0 0-.12.006 1.164 1.164 0 0 1-1.737-1.086 1.5 1.5 0 0 0 1.342-.664zm.657 4.743a2.665 2.665 0 0 1-.943-1.354.857.857 0 0 0 .211.029.871.871 0 0 0 .36-.08 3.266 3.266 0 0 1 .657 1.543 1.628 1.628 0 0 1-.285-.138zm.177-2a2.6 2.6 0 0 0 .48.143.238.238 0 0 0 .023.057 2.674 2.674 0 0 1 .589 1.869 1.8 1.8 0 0 1-.7.131.216.216 0 0 0 .006-.063 3.578 3.578 0 0 0-.7-1.686 1.036 1.036 0 0 0 .302-.451zm1.709 1.794l-.3.137a2.94 2.94 0 0 0-.589-1.783.773.773 0 0 0 .166-.034.518.518 0 0 0 .274-.206 1.117 1.117 0 0 0 .091-.3c.469.5 1.006 1.143.726 1.869a.135.135 0 0 0 .029.149c-.14.06-.277.111-.394.168zm1.006-.5a1.837 1.837 0 0 1-.354.217 2.208 2.208 0 0 0-.829-2.114 2.594 2.594 0 0 1 .423-.006 1.025 1.025 0 0 0 .343-.1 6.9 6.9 0 0 1 .463.76 1.223 1.223 0 0 1 .194.817.1.1 0 0 0 .023.1 1.1 1.1 0 0 1-.266.324zm.48-.989a4.161 4.161 0 0 0-.651-1.154 1.22 1.22 0 0 0 .32-.383 3.207 3.207 0 0 1 .331 1.535zm-.2-1.96a.139.139 0 0 0-.223.006.121.121 0 0 0-.08.086.95.95 0 0 1-.366.52.154.154 0 0 0-.1.057.968.968 0 0 1-.154.063c-.251.074-.549-.063-.777.08-.194.126-.16.32-.246.5-.189.389-.794.143-1.1.017a.145.145 0 0 0-.194.12.715.715 0 0 1-.606.594 1.148 1.148 0 0 1-.394-.046c-.011-.029-.017-.051-.029-.08-.051-.143-.246-.086-.269.04a.56.56 0 0 0-.1.011.271.271 0 0 0-.04.017.643.643 0 0 1-.4-.286.5.5 0 0 1 .3-.691.162.162 0 0 0 .1-.074 1.43 1.43 0 0 0 1.268.029.131.131 0 0 0 .1-.006 5.993 5.993 0 0 0 2.171-1.349 2.155 2.155 0 0 0 .463-.7c.011.011.017.023.034.029.223.137.394-.074.571.2a.842.842 0 0 1 .071.861z" class="cls-2" transform="translate(-453.127 -229.216)"/>
            <path id="Path_904" d="M479.48 260.541c.046-.04.086-.08.131-.12l.074.074a.142.142 0 1 0 .217-.183c-.029-.029-.057-.057-.091-.086a.266.266 0 0 0 .04-.04c.131-.126-.046-.349-.183-.223-.023.017-.04.04-.063.057l-.086-.086a.142.142 0 0 0-.217.183l.1.1c-.034.034-.074.069-.109.1-.127.127.05.35.187.224z" class="cls-2" transform="translate(-477.756 -258.131)"/>
            <path id="Path_905" d="M502.59 241.724a1.952 1.952 0 0 1-.069.194.144.144 0 0 0 .269.1 1.418 1.418 0 0 0 .057-.166c.034.023.069.04.1.063.154.1.32-.131.166-.234-.063-.04-.126-.08-.189-.114.023-.1.04-.194.057-.3a.144.144 0 0 0-.286-.034l-.017.1a.127.127 0 0 0-.143-.023.224.224 0 0 0-.057.046c-.023-.011-.051-.017-.074-.029-.171-.057-.28.206-.1.269.096.048.196.088.286.128z" class="cls-2" transform="translate(-499.409 -240.439)"/>
            <path id="Path_906" d="M534 261.98l-.034.017a.145.145 0 0 0-.074.189.15.15 0 0 0 .189.074l.034-.017a.145.145 0 0 0 .074-.189.14.14 0 0 0-.189-.074z" class="cls-2" transform="translate(-529.267 -260.095)"/>
            <path id="Path_907" d="M469.665 292.984a.144.144 0 0 0 .114.263.144.144 0 0 0-.114-.263z" class="cls-2" transform="translate(-468.644 -289.328)"/>
            <path id="Path_908" d="M504.765 283.28a.144.144 0 0 0 .114.263.144.144 0 0 0-.114-.263z" class="cls-2" transform="translate(-501.738 -280.178)"/>
        </g>
        <path id="Path_912" d="M67.592 25.719a1.577 1.577 0 0 0-.683-.546c.015-.2-.3-.319-.356-.114a3.944 3.944 0 0 0-1.335-.008c-.5.061-1.009.144-1.517.243a.423.423 0 0 0-.008-.319 1.056 1.056 0 0 0-1.115-.66c-.394.053-.993.356-.88.834a.984.984 0 0 0 .364.538l-.425.137a2.474 2.474 0 0 0-1.82 1.881 1.674 1.674 0 0 0 1.464 1.759l.068.159a.2.2 0 0 0 .159.106 11.538 11.538 0 0 1 .827 1.54c.114.25.212.508.3.766a4.311 4.311 0 0 0 .258.743c.22.356.607.25.956.2.637-.1 1.274-.19 1.919-.288l.887-.137a3.766 3.766 0 0 0 .827-.137c.387-.159.281-.683.288-1.016l.068-3.86a.286.286 0 0 0-.03-.121 1.844 1.844 0 0 0-.216-1.7zm-5.407-.447c-.106-.137-.167-.228-.008-.387a.835.835 0 0 1 .41-.182.673.673 0 0 1 .713.326c.144.273-.372.364-.561.372a.141.141 0 0 0-.152.144c-.008 0-.015.008-.023.008a.921.921 0 0 1-.38-.281zm.372.675a1.135 1.135 0 0 0 .22.046.173.173 0 0 0 .2-.137c.137-.03.273-.061.4-.083.554-.121 1.115-.228 1.676-.311a3.767 3.767 0 0 1 1.456-.023 5.922 5.922 0 0 1 .03.645c-.03.531-.41.425-.766.288a.949.949 0 0 0-.673-.072c-.356.137-.478.508-.895.561-.349.046-.637-.228-.986-.167s-.576.387-.842.592a3.962 3.962 0 0 1-1.047.592c-.258.1-.592.2-.72-.114a1.3 1.3 0 0 1-.053-.538.192.192 0 0 0-.083-.167 3.417 3.417 0 0 1 2.082-1.112zm-2.328 1.767a.727.727 0 0 0 1.031.592 4.461 4.461 0 0 0 1.266-.652 5.832 5.832 0 0 1 .576-.493c.319-.174.584.061.895.083a1.315 1.315 0 0 0 1.031-.394c.235-.235.326-.235.622-.129a2.642 2.642 0 0 0 .47.159.641.641 0 0 0 .7-.356 1.729 1.729 0 0 0 .061-.94 1.421 1.421 0 0 1 .516 1.858 1.823 1.823 0 0 0-.432.341c-.159.152-.356.387-.592.394-.417.008-.417-.743-.933-.69a.438.438 0 0 0-.334.25c-.1.159-.121.607-.258.713-.114.023-.22.046-.334.061a1.341 1.341 0 0 1-.121-.167 2.816 2.816 0 0 0-.174-.243.661.661 0 0 0-.455-.228.189.189 0 0 0-.2.22.993.993 0 0 1-.592 1.024 1.128 1.128 0 0 1-1.1-.243.379.379 0 0 0-.485.03.367.367 0 0 0-.106.167 1.231 1.231 0 0 1-1.053-1.357zm4.831 4.7l-.6.091a5.634 5.634 0 0 0-1.145-3.147 1.352 1.352 0 0 0 .576-.857.275.275 0 0 0 .023.053 7.849 7.849 0 0 1 1.145 3.862zm-1.145-4.072l.008.008-.015.015a.059.059 0 0 1 .005-.022zm-.7 4.239c-.1-.1-.144-.44-.19-.569a11.767 11.767 0 0 0-1.289-2.632.176.176 0 0 0-.083-.068c.008-.03.03-.046.083-.038.038.008.114.083.152.106a1.223 1.223 0 0 0 .372.144 1.361 1.361 0 0 0 .7-.015 5.286 5.286 0 0 1 1.122 3.041c-.023 0-.046.008-.068.008-.207.042-.624.191-.798.025zm2.351-.243l-.137.023A8.209 8.209 0 0 0 64.588 29a.328.328 0 0 0 .122 0 .535.535 0 0 0 .417-.288 1.776 1.776 0 0 0 .144-.349c.03-.083.053-.159.083-.243a.172.172 0 0 1 .023-.1 5.376 5.376 0 0 1 .933 1.987 8.547 8.547 0 0 1 .091 2.2h-.023c-.273.05-.546.087-.811.133zm1.834-1.644c-.008.273-.008.546-.015.819a3.04 3.04 0 0 1-.008.372c-.03.182-.046.159-.2.2a1.707 1.707 0 0 1-.41.076 8.386 8.386 0 0 0-.129-2.343 5.679 5.679 0 0 0-.508-1.3.821.821 0 0 0 .334.015c.41-.076.637-.425.94-.652a.129.129 0 0 0 .053.008c-.017.932-.04 1.872-.057 2.805z" class="cls-2" transform="translate(-55.275 -22.466)"/>
        <g id="Group_304" transform="translate(17.724 10.313)">
            <path id="Path_950" d="M283.979 426.954a6.192 6.192 0 0 0-3.079-.857 11.713 11.713 0 0 0-3.329.281 4.984 4.984 0 0 0-2.844 1.775 4.7 4.7 0 0 0-.948 3.147c.015.243.394.243.379 0a4.323 4.323 0 0 1 2.842-4.346l.326-.114a4.216 4.216 0 0 0-1.016 2.563c-.008.243.372.243.379 0a3.852 3.852 0 0 1 .865-2.252c.015.008.038.015.053.023a10.827 10.827 0 0 1 1.555.387 5.879 5.879 0 0 0-.129 2.647c.046.243.41.136.364-.1a5.5 5.5 0 0 1 .114-2.412 3.649 3.649 0 0 1 2.207 2.055c.083.228.447.129.364-.1a4.079 4.079 0 0 0-2.465-2.313 5.524 5.524 0 0 1 .394-.865c.159-.008.311-.008.47-.008a.208.208 0 0 0 .083.326 4.535 4.535 0 0 1 2.707 2.806c.076.228.44.129.364-.1a4.917 4.917 0 0 0-2.844-3.018 7.112 7.112 0 0 1 2.07.364 4.531 4.531 0 0 1 2.207 1.714c.569.849.948 1.964.1 2.76a6.63 6.63 0 0 1-2.48 1.206 13.4 13.4 0 0 1-2.882.629 9.672 9.672 0 0 1-3.269-.2 4.784 4.784 0 0 1-2.912-1.638c-.137-.2-.463-.015-.326.19a4.6 4.6 0 0 0 2.525 1.638 9.384 9.384 0 0 0 3.269.44 13.034 13.034 0 0 0 3.322-.569 8.691 8.691 0 0 0 2.859-1.282c1.769-1.425.169-3.845-1.295-4.777zm-6.128-.121c.061-.061.121-.114.19-.174a10.5 10.5 0 0 1 1.547-.174 5.288 5.288 0 0 0-.3.713 9.691 9.691 0 0 0-1.436-.366z" class="cls-2" transform="translate(-273.269 -426.08)"/>
            <path id="Path_951" d="M380.182 498.3a.19.19 0 0 0 0 .379.19.19 0 0 0 0-.379z" class="cls-2" transform="translate(-371.906 -492.823)"/>
            <path id="Path_952" d="M394.182 495.3a.19.19 0 0 0 0 .379.19.19 0 0 0 0-.379z" class="cls-2" transform="translate(-384.844 -490.051)"/>
            <path id="Path_953" d="M409.182 490.3a.19.19 0 0 0 0 .379.19.19 0 0 0 0-.379z" class="cls-2" transform="translate(-398.706 -485.43)"/>
        </g>
        <g id="Group_298" transform="translate(.781 20.242)">
            <path id="Path_1006" d="M95.5 430.019c.546-1.183.758-3.526-.736-4.126a.151.151 0 0 0-.129 0 3.091 3.091 0 0 0-3.276-.478 3.455 3.455 0 0 0-1.926 3.39 2.541 2.541 0 0 0 .978 1.737 5.408 5.408 0 0 0 1.888 1.084 2.735 2.735 0 0 0 3.201-1.607zm-2.973 1.274a4.582 4.582 0 0 1-1.509-.766 2.626 2.626 0 0 1-1.16-1.456 3.054 3.054 0 0 1 1.282-3.094 2.7 2.7 0 0 1 3.36.3.187.187 0 0 0 .25.015c1.039.523.849 2.366.538 3.261a2.438 2.438 0 0 1-2.761 1.74z" class="cls-2" transform="translate(-89.419 -425.146)"/>
            <path id="Path_1007" d="M119.453 457.892c.288-.622-.121-1.062-.629-1.373a.176.176 0 0 0-.258.068 1.26 1.26 0 0 0-1.077.66c-.319.538.068 1.054.576 1.274a1.015 1.015 0 0 0 1.388-.629zm-1.107.326c-.3-.076-.66-.319-.576-.66a.8.8 0 0 1 1-.554.2.2 0 0 0 .129.015.6.6 0 0 1 .281.44.747.747 0 0 1-.834.759z" class="cls-2" transform="translate(-115.253 -454.111)"/>
            <path id="Path_1008" d="M132.8 437.291a.19.19 0 1 0 .372-.083 2.129 2.129 0 0 1-.106-.72.19.19 0 0 0-.379-.015 2.328 2.328 0 0 0 .113.818z" class="cls-2" transform="translate(-129.404 -435.452)"/>
            <path id="Path_1009" d="M148.6 451.46a.912.912 0 0 0-.607-.137.192.192 0 0 0-.144.228.2.2 0 0 0 .228.144.5.5 0 0 1 .326.083c.197.13.397-.189.197-.318z" class="cls-2" transform="translate(-143.411 -449.333)"/>
            <path id="Path_1010" d="M113.468 444.17a.2.2 0 0 0-.061-.265.572.572 0 0 1-.2-.159.188.188 0 1 0-.281.25.876.876 0 0 0 .273.227.192.192 0 0 0 .269-.053z" class="cls-2" transform="translate(-111.104 -442.277)"/>
            <path id="Path_1011" d="M106.111 461.256a.2.2 0 0 0-.265.061.961.961 0 0 1-.2.258c-.182.167.076.447.25.281a1.642 1.642 0 0 0 .273-.334.193.193 0 0 0-.058-.266z" class="cls-2" transform="translate(-104.353 -458.492)"/>
            <path id="Path_1012" d="M107.986 480.836c-.023-.03-.053-.061-.076-.091a.188.188 0 1 0-.281.25c.023.03.053.061.076.091a.188.188 0 1 0 .281-.25z" class="cls-2" transform="translate(-106.206 -476.471)"/>
            <path id="Path_1013" d="M125.069 492.713v-.113c0-.008.008-.015.008-.023a.108.108 0 0 1 .015-.046.194.194 0 0 0-.121-.235.187.187 0 0 0-.235.121.678.678 0 0 0-.008.425.19.19 0 0 0 .228.144.192.192 0 0 0 .144-.228c-.016.001-.024-.022-.031-.045z" class="cls-2" transform="translate(-122.022 -487.196)"/>
            <path id="Path_1014" d="M142.271 490.933a.189.189 0 0 0-.2.319.189.189 0 0 0 .2-.319z" class="cls-2" transform="translate(-137.995 -485.916)"/>
            <path id="Path_1015" d="M148.171 476.333a.19.19 0 0 0-.2.319.19.19 0 0 0 .2-.319z" class="cls-2" transform="translate(-143.448 -472.423)"/>
            <path id="Path_1016" d="M157.971 478.433a.189.189 0 0 0-.2.319.189.189 0 0 0 .2-.319z" class="cls-2" transform="translate(-152.505 -474.364)"/>
        </g>
        <g id="Group_317" transform="translate(2.633 12.104)">
            <path id="Path_945" d="M1253.052 514.2c-.671-.71-1.771-.491-2.547-1.008-.118-.079-.228.114-.11.188a.384.384 0 0 0 .044.026q-.8.875-1.53 1.806a6.364 6.364 0 0 0-1.061 1.714c-.048.131.162.188.21.057v-.013a.117.117 0 0 0 .053.1.1.1 0 0 0 .009.088 8.591 8.591 0 0 1 .666 1.609.087.087 0 0 0 .018.035.113.113 0 0 0 .131.1 22.1 22.1 0 0 0 3.607-.881.11.11 0 0 0 .1.079c.329.018.509-.263.566-.552a9.155 9.155 0 0 0 .114-1.144 10.174 10.174 0 0 0 0-1.214 1.758 1.758 0 0 0-.245-.885.126.126 0 0 0-.025-.105zm-3.892 1.034q.684-.861 1.425-1.67a.116.116 0 0 0 .031-.061c.679.32 1.547.25 2.135.719l-4.642 2.669a.194.194 0 0 0-.031.026 6.816 6.816 0 0 1 1.082-1.68zm3.949.925v.018a.751.751 0 0 0-.688.39c-.039.079-.053.228-.11.285-.127.118-.333.009-.469-.035s-.311-.153-.408.009c-.039.066-.018.131-.07.2a1.523 1.523 0 0 1-.386.2c-.245.123-.487.25-.732.373l-1.394.71c-.061-.171-.127-.338-.2-.5a3.085 3.085 0 0 1 1.232-.522 1.456 1.456 0 0 0 .487-.263.98.98 0 0 0 .188-.215c.088-.136.127-.272.311-.206a.537.537 0 0 0 .456.031.562.562 0 0 0 .3-.342c.109-.254.53-.386.771-.513s.482-.254.728-.381c.01.259-.012.531-.016.763zm-.469 1.723a.1.1 0 0 0-.132-.083 21.664 21.664 0 0 1-3.533.872l-.053-.162c.451-.232.9-.46 1.354-.693l.693-.355c.175-.092.486-.175.6-.338.031-.044.022-.11.048-.145a.051.051 0 0 0 .031.009c.07.018.136.044.206.066a.663.663 0 0 0 .474.061c.162-.074.193-.25.254-.4a.54.54 0 0 1 .5-.324c-.013.219-.026.438-.048.658-.013.271-.004.858-.394.836zm.478-2.735l-.824.434a4.213 4.213 0 0 0-.758.412c-.167.14-.083.408-.355.451-.2.031-.338-.188-.548-.079-.175.092-.228.329-.368.46a1.533 1.533 0 0 1-.635.307 2.789 2.789 0 0 0-1.065.456c-.083-.18-.171-.359-.263-.53a.06.06 0 0 0-.013-.018q2.295-1.315 4.585-2.634a1.448 1.448 0 0 1 .244.743z" class="cls-2" transform="translate(-1247.838 -513.175)"/>
            <path id="Path_946" d="M1298.15 540.238c.215.031.544.048.561-.237a.529.529 0 0 0-.346-.5.864.864 0 0 0-.736.118.112.112 0 0 0 .013.2.207.207 0 0 0 0 .048.572.572 0 0 0 .508.371zm.32-.355c.074.175-.153.158-.263.145a.39.39 0 0 1-.351-.21.133.133 0 0 0-.031-.048c.219-.102.531-.15.645.113z" class="cls-2" transform="translate(-1295.394 -538.312)"/>
            <path id="Path_947" d="M1326.838 535.753a.109.109 0 0 0-.11-.188.109.109 0 0 0 .11.188z" class="cls-2" transform="translate(-1323.219 -534.568)"/>
            <path id="Path_948" d="M1283.138 562.053a.109.109 0 0 0-.109-.189.109.109 0 0 0 .109.189z" class="cls-2" transform="translate(-1281.435 -559.716)"/>
            <path id="Path_949" d="M1314.338 527.953a.109.109 0 0 0-.11-.188.109.109 0 0 0 .11.188z" class="cls-2" transform="translate(-1311.267 -527.11)"/>
        </g>
        <g id="Group_318" transform="translate(16.24 3.578)">
            <path id="Path_920" d="M705.86 646.956c.185-.989-.664-1.776-.7-2.733 0-.145-.23-.122-.226.023a.186.186 0 0 0 0 .05c-.809-.09-1.617-.154-2.431-.181a6.665 6.665 0 0 0-2.074.154c-.14.041-.059.253.081.212a.017.017 0 0 0 .014 0 .133.133 0 0 0-.054.1.108.108 0 0 0-.068.059 9.129 9.129 0 0 1-.935 1.532.136.136 0 0 0-.018.036.116.116 0 0 0 0 .167 22.435 22.435 0 0 0 2.923 2.471.108.108 0 0 0 0 .131.6.6 0 0 0 .8.136 8.532 8.532 0 0 0 1.021-.6 10.7 10.7 0 0 0 1.012-.732 1.836 1.836 0 0 0 .587-.741.092.092 0 0 0 .068-.084zm-3.221-2.616c.755.032 1.509.09 2.259.176a.085.085 0 0 0 .068-.014c.145.759.727 1.441.7 2.214q-2.521-1.125-5.038-2.255a.131.131 0 0 0-.041-.009 7.116 7.116 0 0 1 2.051-.112zm1.622 3.849s-.009 0-.014.009a.782.782 0 0 0-.741-.339c-.09.014-.221.095-.3.081-.176-.032-.208-.271-.258-.411s-.063-.352-.253-.33c-.077.009-.122.068-.208.059a1.508 1.508 0 0 1-.4-.2c-.253-.127-.5-.253-.755-.384l-1.437-.732c.1-.154.2-.312.3-.47a3.136 3.136 0 0 1 1.179.709 1.554 1.554 0 0 0 .515.248 1.063 1.063 0 0 0 .294.027c.167-.009.3-.059.361.136a.572.572 0 0 0 .253.4.561.561 0 0 0 .465.041c.28-.063.642.208.895.33s.506.248.759.375c-.222.172-.457.316-.656.452zm-1.721.655a.1.1 0 0 0-.009-.158 22.2 22.2 0 0 1-2.869-2.417c.036-.045.068-.095.1-.14.465.235.931.474 1.4.709l.714.361c.181.09.443.3.651.3.054 0 .1-.05.149-.05a.114.114 0 0 0 .009.032c.027.068.045.14.068.208.05.149.086.348.235.434s.325.009.484-.027a.548.548 0 0 1 .574.226c-.19.122-.384.244-.578.357-.224.143-.712.505-.929.166zm2.571-1.26l-.858-.42a4.523 4.523 0 0 0-.8-.384c-.217-.054-.389.181-.592-.023-.149-.149-.045-.393-.267-.506-.185-.09-.411.009-.605-.027a1.6 1.6 0 0 1-.642-.339 2.8 2.8 0 0 0-1.026-.61q.149-.264.285-.542c0-.009 0-.014.009-.023q2.487 1.111 4.979 2.227a1.614 1.614 0 0 1-.484.647z" class="cls-2" transform="translate(-699.408 -644.101)"/>
            <path id="Path_921" d="M790.612 656.8c.1.194.289.484.538.325a.546.546 0 0 0 .2-.587.88.88 0 0 0-.547-.542.114.114 0 0 0-.154.131.093.093 0 0 0-.036.036.6.6 0 0 0-.001.637zm.493.054c-.1.167-.221-.032-.28-.136a.4.4 0 0 1-.036-.42.087.087 0 0 0 .018-.054c.22.125.446.351.293.608z" class="cls-2" transform="translate(-786.406 -655.447)"/>
            <path id="Path_922" d="M816.506 675.389a.113.113 0 0 0 .09-.208.113.113 0 0 0-.09.208z" class="cls-2" transform="translate(-811.152 -673.767)"/>
            <path id="Path_923" d="M769.548 655.489a.113.113 0 0 0 .09-.208.113.113 0 0 0-.09.208z" class="cls-2" transform="translate(-766.318 -654.766)"/>
            <path id="Path_924" d="M815.406 660.689a.113.113 0 0 0 .09-.208.113.113 0 0 0-.09.208z" class="cls-2" transform="translate(-810.102 -659.731)"/>
        </g>
        <g id="Group_319" transform="rotate(-45 21.762 -5.21)">
            <path id="Path_950-2" d="M277.834 426.452a2.639 2.639 0 0 0-1.312-.365 4.992 4.992 0 0 0-1.419.12 2.124 2.124 0 0 0-1.212.756 2 2 0 0 0-.4 1.341c.006.1.168.1.162 0a1.842 1.842 0 0 1 1.212-1.852l.135-.052a1.8 1.8 0 0 0-.433 1.093c0 .1.158.1.162 0a1.642 1.642 0 0 1 .368-.96l.023.01a4.61 4.61 0 0 1 .663.165 2.506 2.506 0 0 0-.055 1.128c.019.1.175.058.155-.042a2.345 2.345 0 0 1 .048-1.028 1.555 1.555 0 0 1 .941.876c.036.1.191.055.155-.042a1.739 1.739 0 0 0-1.051-.986 2.354 2.354 0 0 1 .168-.368h.2a.089.089 0 0 0 .036.139 1.933 1.933 0 0 1 1.154 1.2c.032.1.187.055.155-.042a2.1 2.1 0 0 0-1.212-1.286 3.03 3.03 0 0 1 .882.155 1.931 1.931 0 0 1 .941.73c.242.362.4.837.042 1.177a2.826 2.826 0 0 1-1.057.514 5.708 5.708 0 0 1-1.228.268 4.122 4.122 0 0 1-1.393-.087 2.039 2.039 0 0 1-1.241-.7c-.058-.087-.2-.006-.139.081a1.961 1.961 0 0 0 1.076.7 4 4 0 0 0 1.393.188 5.556 5.556 0 0 0 1.416-.242 3.7 3.7 0 0 0 1.219-.546c.752-.614.07-1.645-.554-2.043zm-2.612-.052c.026-.026.052-.048.081-.074a4.472 4.472 0 0 1 .659-.074 2.25 2.25 0 0 0-.129.3 4.129 4.129 0 0 0-.611-.152z" class="cls-2" transform="translate(-273.269 -426.08)"/>
            <path id="Path_951-2" d="M380.078 498.3a.081.081 0 0 0 0 .162.081.081 0 0 0 0-.162z" class="cls-2" transform="translate(-376.55 -495.966)"/>
            <path id="Path_952-2" d="M394.078 495.3a.081.081 0 0 0 0 .162.081.081 0 0 0 0-.162z" class="cls-2" transform="translate(-390.097 -493.063)"/>
            <path id="Path_953-2" d="M409.078 490.3a.081.081 0 0 0 0 .162.081.081 0 0 0 0-.162z" class="cls-2" transform="translate(-404.613 -488.224)"/>
        </g>
        <g id="Group_320" transform="translate(25.363 3.242)">
            <path id="Path_1006-2" d="M93.081 428.081c.329-.713.457-2.124-.443-2.485a.091.091 0 0 0-.078 0 1.862 1.862 0 0 0-1.973-.288 2.081 2.081 0 0 0-1.16 2.042 1.531 1.531 0 0 0 .589 1.046 3.257 3.257 0 0 0 1.137.653 1.647 1.647 0 0 0 1.928-.968zm-1.791.767a2.761 2.761 0 0 1-.909-.461 1.582 1.582 0 0 1-.7-.877 1.839 1.839 0 0 1 .772-1.864 1.627 1.627 0 0 1 2.023.183.113.113 0 0 0 .151.009c.626.315.512 1.425.324 1.964a1.469 1.469 0 0 1-1.66 1.047z" class="cls-2" transform="translate(-89.419 -425.146)"/>
            <path id="Path_1007-2" d="M118.626 457.334c.174-.375-.073-.639-.379-.827a.106.106 0 0 0-.155.041.759.759 0 0 0-.649.4c-.192.324.041.635.347.767a.612.612 0 0 0 .836-.381zm-.667.2c-.183-.046-.4-.192-.347-.4a.483.483 0 0 1 .6-.333.118.118 0 0 0 .078.009.363.363 0 0 1 .169.265.45.45 0 0 1-.5.455z" class="cls-2" transform="translate(-116.096 -455.057)"/>
            <path id="Path_1008-2" d="M132.754 436.9a.115.115 0 1 0 .224-.05 1.282 1.282 0 0 1-.064-.434.114.114 0 0 0-.228-.009 1.4 1.4 0 0 0 .068.493z" class="cls-2" transform="translate(-130.709 -435.788)"/>
            <path id="Path_1009-2" d="M148.3 451.4a.55.55 0 0 0-.365-.082.116.116 0 0 0-.087.137.119.119 0 0 0 .137.087.3.3 0 0 1 .2.05c.115.081.235-.111.115-.192z" class="cls-2" transform="translate(-145.174 -450.122)"/>
            <path id="Path_1010-2" d="M113.236 443.976a.118.118 0 0 0-.037-.16.344.344 0 0 1-.119-.1.113.113 0 0 0-.169.151.528.528 0 0 0 .164.137.116.116 0 0 0 .161-.028z" class="cls-2" transform="translate(-111.811 -442.836)"/>
            <path id="Path_1011-2" d="M105.9 461.245a.118.118 0 0 0-.16.037.579.579 0 0 1-.123.155c-.11.1.046.27.151.169a.989.989 0 0 0 .164-.2.116.116 0 0 0-.032-.161z" class="cls-2" transform="translate(-104.841 -459.58)"/>
            <path id="Path_1012-2" d="M107.826 480.775c-.014-.018-.032-.036-.046-.055a.113.113 0 1 0-.169.151c.014.018.032.036.046.055a.113.113 0 1 0 .169-.151z" class="cls-2" transform="translate(-106.753 -478.146)"/>
            <path id="Path_1013-2" d="M124.921 492.544v-.069-.014a.065.065 0 0 1 .009-.027.117.117 0 0 0-.073-.142.113.113 0 0 0-.142.073.408.408 0 0 0 0 .256.114.114 0 0 0 .137.087.116.116 0 0 0 .087-.137c-.009 0-.014-.013-.018-.027z" class="cls-2" transform="translate(-123.086 -489.221)"/>
            <path id="Path_1014-2" d="M142.156 490.921a.114.114 0 0 0-.123.192.114.114 0 0 0 .123-.192z" class="cls-2" transform="translate(-139.581 -487.899)"/>
            <path id="Path_1015-2" d="M148.056 476.321a.114.114 0 0 0-.123.192.114.114 0 0 0 .123-.192z" class="cls-2" transform="translate(-145.211 -473.966)"/>
            <path id="Path_1016-2" d="M157.856 478.421a.114.114 0 0 0-.123.192.114.114 0 1 0 .123-.192z" class="cls-2" transform="translate(-154.564 -475.97)"/>
        </g>
    </g>
</svg>
