<svg xmlns="http://www.w3.org/2000/svg" width="18" height="18" viewBox="0 0 18 18">
    <path fill="#777" d="M14.625 13.5h-9a2.25 2.25 0 0 0-2.25 2.25v1.125A1.125 1.125 0 0 0 4.5 18h11.25a1.125 1.125 0 0 0 1.125-1.125V15.75a2.25 2.25 0 0 0-2.25-2.25zm-4.5 3.375a1.125 1.125 0 1 1 1.125-1.125 1.125 1.125 0 0 1-1.125 1.125zM11.531 2.25h5.855L18 0H1.688A1.687 1.687 0 0 0 0 1.688v5.625A1.687 1.687 0 0 0 1.688 9h3.63l.307 3.375h9l.614-2.25h-3.708a.281.281 0 0 1-.281-.281v-.563A.281.281 0 0 1 11.531 9h4.014l.614-2.25h-4.628a.281.281 0 0 1-.281-.281v-.563a.281.281 0 0 1 .281-.281h4.935l.614-2.25h-5.549a.281.281 0 0 1-.281-.281v-.563a.281.281 0 0 1 .281-.281zM2.25 6.75v-4.5H4.7l.409 4.5z"/>
</svg>
