<svg xmlns="http://www.w3.org/2000/svg" width="21" height="24" viewBox="0 0 21 24">
    <path fill="#fff7f9" d="M21 16.875V1.125A1.122 1.122 0 0 0 19.875 0H4.5A4.5 4.5 0 0 0 0 4.5v15A4.5 4.5 0 0 0 4.5 24h15.375A1.122 1.122 0 0 0 21 22.875v-.75a1.134 1.134 0 0 0-.417-.877 10.453 10.453 0 0 1 0-3.5 1.117 1.117 0 0 0 .417-.873zM6 6.281A.282.282 0 0 1 6.281 6h9.938a.282.282 0 0 1 .281.281v.938a.282.282 0 0 1-.281.281H6.281A.282.282 0 0 1 6 7.219zm0 3A.282.282 0 0 1 6.281 9h9.938a.282.282 0 0 1 .281.281v.938a.282.282 0 0 1-.281.281H6.281A.282.282 0 0 1 6 10.219zM17.878 21H4.5a1.5 1.5 0 0 1 0-3h13.378a16.876 16.876 0 0 0 0 3z"/>
</svg>
