<svg xmlns="http://www.w3.org/2000/svg" width="18" height="18" viewBox="0 0 18 18">
    <path fill="#777" d="M10.532 5.506a4.367 4.367 0 0 0-5.281 1.153L7.192 8.6a.562.562 0 1 1-.795.795L4.632 7.629l-4.5 9.236a.8.8 0 0 0 0 .693.791.791 0 0 0 1.055.362l4.7-2.292L4.151 13.9a.558.558 0 0 1 0-.795.564.564 0 0 1 .795 0l2 2 3.586-1.751a4.368 4.368 0 0 0 0-7.851zm3.238-1.227A3.494 3.494 0 0 0 12.7 0a3.482 3.482 0 0 0-.278 5.341l.281.281a3.482 3.482 0 0 0 5.341-.278 3.494 3.494 0 0 0-4.274-1.065z" transform="translate(-.049)"/>
</svg>
