<svg xmlns="http://www.w3.org/2000/svg" width="24" height="18" viewBox="0 0 24 18">
    <path fill="#777" d="M21.75 64H2.25A2.25 2.25 0 0 0 0 66.25v13.5A2.25 2.25 0 0 0 2.25 82h19.5A2.25 2.25 0 0 0 24 79.75v-13.5A2.25 2.25 0 0 0 21.75 64zm-.281 15.75H2.531a.281.281 0 0 1-.281-.281V66.531a.281.281 0 0 1 .281-.281h18.938a.281.281 0 0 1 .281.281v12.938a.281.281 0 0 1-.281.281zM6 68.125A1.875 1.875 0 1 0 7.875 70 1.875 1.875 0 0 0 6 68.125zM4.5 77.5h15v-3.75l-4.1-4.1a.563.563 0 0 0-.8 0L9 75.25 7.148 73.4a.563.563 0 0 0-.8 0L4.5 75.25z" transform="translate(0 -64)"/>
</svg>
